{"title":"Tears.of.Steel.2012.4K.[3840x1714].x264.anoXmous","uid":8965512,"size":4714540358,"categoryP":"video","categoryS":"hd___movies","magnet":"?xt=urn:btih:1732c76718b1fd038885b64bfe690030d9a904ab&amp;dn=Tears.of.Steel.2012.4K.%5B3840x1714%5D.x264.anoXmous&amp;tr=udp%3A%2F%2Ftracker.openbittorrent.com%3A80&amp;tr=udp%3A%2F%2Fopen.demonii.com%3A1337&amp;tr=udp%3A%2F%2Ftracker.coppersurfer.tk%3A6969&amp;tr=udp%3A%2F%2Fexodus.desync.com%3A6969","seeders":8,"leechers":1,"uploader":"Zen_Bud","files":-1,"time":1380212178,"description":"General\n\n            Tears.of.Steel.2012.4K.[3840x1714].x264.anoXmous.mp4\n\t\t\t\n\t\t\t\nFormat                                   : MPEG-4\nFormat profile                           : Base Media\nCodec ID                                 : isom\nFile size                                : 4.39 GiB\nDuration                                 : 12mn 14s\nOverall bit rate mode                    : Variable\nOverall bit rate                         : 51.4 Mbps\n\n\nVideo\nID                                       : 1\nFormat                                   : AVC\nFormat/Info                              : Advanced Video Codec\nFormat profile                           : &lt;a class=&quot;__cf_email__&quot; href=&quot;/cdn-cgi/l/email-protection&quot; data-cfemail=&quot;1c54757b745c5029322d&quot;&gt;[email&amp;#160;protected]&lt;/a&gt;&lt;script cf-hash='f9e31' type=&quot;text/javascript&quot;&gt;\n/* &lt;![CDATA[ */!function(){try{var t=&quot;currentScript&quot;in document?document.currentScript:function(){for(var t=document.getElementsByTagName(&quot;script&quot;),e=t.length;e--;)if(t[e].getAttribute(&quot;cf-hash&quot;))return t[e]}();if(t&amp;&amp;t.previousSibling){var e,r,n,i,c=t.previousSibling,a=c.getAttribute(&quot;data-cfemail&quot;);if(a){for(e=&quot;&quot;,r=parseInt(a.substr(0,2),16),n=2;a.length-n;n+=2)i=parseInt(a.substr(n,2),16)^r,e+=String.fromCharCode(i);e=document.createTextNode(e),c.parentNode.replaceChild(e,c)}}}catch(u){}}();/* ]]&gt; */&lt;/script&gt;\nFormat settings, CABAC                   : Yes\nFormat settings, ReFrames                : 4 frames\nCodec ID                                 : avc1\nCodec ID/Info                            : Advanced Video Coding\nDuration                                 : 12mn 14s\nBit rate                                 : 51.2 Mbps\nMaximum bit rate                         : 135 Mbps\nWidth                                    : 3 840 pixels\nHeight                                   : 1 714 pixels\nDisplay aspect ratio                     : 2.25:1\nFrame rate mode                          : Constant\nFrame rate                               : 24.000 fps\nColor space                              : YUV\nChroma subsampling                       : 4:2:0\nBit depth                                : 8 bits\nScan type                                : Progressive\nBits/(Pixel*Frame)                       : 0.324\nStream size                              : 4.37 GiB (100%)\nWriting library                          : x264 core 133 r2334 a3ac64b\nEncoding settings                        : cabac=1 // deblock=1:0:0 / analyse=0x3:0x113 / me=hex / \nsubme=7 / psy=1 / psy_rd=1.00:0.00 // me_range=16 / chroma_me=1 / trellis=1 / 8x8dct=1 / \ncqm=0 / deadzone=21,11 / fast_pskip=1 / chroma_qp_offset=-2 / threads=12 / lookahead_threads=2 / \nsliced_threads=0 / nr=0 / decimate=1 / interlaced=0 / bluray_compat=0 / constrained_intra=0 / \nbframes=3 / b_pyramid=2 / b_adapt=1 / b_bias=0 / direct=1 / weightb=1 / open_gop=0 / \nweightp=2 / keyint=240 / keyint_min=24 / scenecut=40 / intra_refresh=0 / rc_lookahead=40 / \nrc=2pass / mbtree=1 / bitrate=51198 / ratetol=1.0 / qcomp=0.60 / qpmin=0 / qpmax=69 / \nqpstep=4 / cplxblur=20.0 / qblur=0.5 / ip_ratio=1.40 / aq=1:1.00\n\n\nAudio\nID                                       : 2\nFormat                                   : AAC\nFormat/Info                              : Advanced Audio Codec\nFormat profile                           : LC\nCodec ID                                 : 40\nDuration                                 : 12mn 13s\nBit rate mode                            : Variable\nBit rate                                 : 183 Kbps\nMaximum bit rate                         : 209 Kbps\nChannel(s)                               : 2 channels\nChannel positions                        : Front: L R\nSampling rate                            : 44.1 KHz\nCompression mode                         : Lossy\nDelay relative to video                  : 83ms\nStream size                              : 16.0 MiB (0%)\nLanguage                                 : English\n\n---------------------------------------------------------------------------------------\n\nSub in a .srt file it can turns off/on\n\nTears.of.Steel.2012.4K.[3840x1714].x264.anoXmous_eng.srt\nTears.of.Steel.2012.4K.[3840x1714].x264.anoXmous_swe.srt\n\n---------------------------------------------------------------------------------------\n\nTears of Steel is a live-action/CGI short film, -12mn 13s\n           &lt;a href=&quot;\nhttp://www.imdb.com/title/tt2285752/&quot; rel=&quot;nofollow&quot; target=&quot;_NEW&quot;&gt;\nhttp://www.imdb.com/title/tt2285752/&lt;/a&gt;\n &lt;a href=&quot;\nhttp://en.wikipedia.org/wiki/Tears_of_Steel&quot; rel=&quot;nofollow&quot; target=&quot;_NEW&quot;&gt;\nhttp://en.wikipedia.org/wiki/Tears_of_Steel&lt;/a&gt;\n &lt;a href=&quot;\nhttp://en.wikipedia.org/wiki/Blender_Foundation&quot; rel=&quot;nofollow&quot; target=&quot;_NEW&quot;&gt;\nhttp://en.wikipedia.org/wiki/Blender_Foundation&lt;/a&gt;\n\n --------------------------------------------------------------------------------------\n\n         This BRRip plays very well with PSP and XBOX\n\t    \n---------------------------------------------------------------------------------------\n       &lt;a href=&quot;\nhttps://thepiratebay.se/search/anoXmous/0/7/0&quot; rel=&quot;nofollow&quot; target=&quot;_NEW&quot;&gt;\nhttps://thepiratebay.se/search/anoXmous/0/7/0&lt;/a&gt;\n &lt;a href=&quot;\nhttps://thepiratebay.se/search/anoXmous/0/9/0&quot; rel=&quot;nofollow&quot; target=&quot;_NEW&quot;&gt;\nhttps://thepiratebay.se/search/anoXmous/0/9/0&lt;/a&gt;\n     &lt;a href=&quot;\nhttps://thepiratebay.se/search/anoXmous/0/99/0&quot; rel=&quot;nofollow&quot; target=&quot;_NEW&quot;&gt;\nhttps://thepiratebay.se/search/anoXmous/0/99/0&lt;/a&gt;\n &lt;a href=&quot;\nhttps://thepiratebay.se/user/Zen_Bud/0/7/0&quot; rel=&quot;nofollow&quot; target=&quot;_NEW&quot;&gt;\nhttps://thepiratebay.se/user/Zen_Bud/0/7/0&lt;/a&gt;\n\n---------------------------------------------------------------------------------------\n\n                                 _/      _/                                             \n    _/_/_/  _/_/_/      _/_/      _/  _/    _/_/_/  _/_/      _/_/    _/    _/    _/_/_/\n _/    _/  _/    _/  _/    _/      _/      _/    _/    _/  _/    _/  _/    _/  _/_/     \n_/    _/  _/    _/  _/    _/    _/  _/    _/    _/    _/  _/    _/  _/    _/      _/_/  \n _/_/_/  _/    _/    _/_/    _/      _/  _/    _/    _/    _/_/      _/_/_/  _/_/_/\n\t\t\t\t\t\t\t\t\n\n----------------------------------------------------------------------------------------\n\n","torrent":{"xt":"urn:btih:1732c76718b1fd038885b64bfe690030d9a904ab","amp;dn":"Tears.of.Steel.2012.4K.%5B3840x1714%5D.x264.anoXmous","amp;tr":["udp%3A%2F%2Ftracker.openbittorrent.com%3A80","udp%3A%2F%2Fopen.demonii.com%3A1337","udp%3A%2F%2Ftracker.coppersurfer.tk%3A6969","udp%3A%2F%2Fexodus.desync.com%3A6969"],"infoHash":"1732c76718b1fd038885b64bfe690030d9a904ab","infoHashBuffer":{"type":"Buffer","data":[23,50,199,103,24,177,253,3,136,133,182,75,254,105,0,48,217,169,4,171]},"announce":[],"urlList":[]}}